<svg width="167" height="192" viewBox="0 0 167 192" fill="none" xmlns="http://www.w3.org/2000/svg">
<path d="M30.8011 163.206L19.0745 12H147.925L136.183 163.182L83.4217 180L30.8011 163.206Z" fill="#E44F26"/>
<path d="M83.5 167.148L126.137 153.558L136.168 24.366H83.5V167.148Z" fill="#F1662A"/>
<path d="M83.5 80.442H62.1553L60.6836 61.452H83.5V42.906H83.4426H43.0547L43.4409 47.886L47.4019 98.988H83.5V80.442Z" fill="#EBEBEB"/>
<path d="M83.5 128.604L83.4269 128.628L65.464 123.054L64.3159 108.264H55.5849H48.1221L50.3818 137.376L83.4269 147.924L83.5 147.9V128.604Z" fill="#EBEBEB"/>
<path d="M83.4426 80.442V98.988H103.305L101.437 123.042L83.4426 128.622V147.918L116.514 137.376L116.754 134.244L120.543 85.422L120.939 80.442H116.592H83.4426Z" fill="white"/>
<path d="M83.4426 42.906V54.426V61.41V61.452H122.354H122.406L122.729 57.288L123.465 47.886L123.851 42.906H83.4426Z" fill="white"/>
</svg>
