<svg width="164" height="192" viewBox="0 0 164 192" fill="none" xmlns="http://www.w3.org/2000/svg">
<path d="M30.2477 163.206L18.737 12H145.263L133.737 163.182L81.9231 180L30.2477 163.206Z" fill="#1572B6"/>
<path d="M82 167.148L123.871 153.558L133.721 24.366H82V167.148Z" fill="#33A9DC"/>
<path d="M82 79.146H102.961L104.406 60.156H82V41.61H82.0564H121.719L121.34 46.584L117.45 97.692H82V79.146Z" fill="white"/>
<path d="M82.0974 127.308L82.0256 127.332L64.3854 121.752L63.2579 106.962H54.6837H47.355L49.5741 136.08L82.0205 146.628L82.0974 146.604V127.308Z" fill="#EBEBEB"/>
<path d="M101.613 96.906L99.7069 121.74L82.041 127.32V146.616L114.513 136.08L114.754 132.948L117.506 96.906H101.613Z" fill="white"/>
<path d="M82.0564 41.61V53.13V60.108V60.156H43.8444H43.7931L43.4754 55.986L42.7528 46.584L42.3735 41.61H82.0564Z" fill="#EBEBEB"/>
<path d="M82 79.146V90.666V97.644V97.692H64.6314H64.5801L64.2624 93.522L63.5449 84.12L63.1656 79.146H82Z" fill="#EBEBEB"/>
</svg>
