<svg width="158" height="157" viewBox="0 0 158 157" fill="none" xmlns="http://www.w3.org/2000/svg">
<path d="M154.075 71.0544L85.5167 2.94938C84.5788 2.01453 83.4645 1.27277 82.2375 0.76665C81.0105 0.26053 79.695 0 78.3664 0C77.0378 0 75.7223 0.26053 74.4953 0.76665C73.2683 1.27277 72.154 2.01453 71.2161 2.94938L56.9773 17.0941L75.0352 35.0326C77.1646 34.3127 79.4548 34.2015 81.6447 34.7117C83.8347 35.2218 85.8363 36.3328 87.4216 37.918C89.0068 39.5033 90.1119 41.499 90.611 43.6778C91.1101 45.8565 90.983 48.1308 90.2442 50.2413L107.629 67.5113C110.228 66.6245 113.054 66.649 115.637 67.5808C118.219 68.5126 120.402 70.2954 121.822 72.6321C123.243 74.9689 123.814 77.7185 123.441 80.4227C123.068 83.127 121.773 85.6226 119.773 87.4939C117.772 89.3651 115.187 90.4988 112.447 90.7062C109.707 90.9136 106.979 90.1822 104.716 88.6337C102.453 87.0852 100.793 84.8133 100.012 82.1964C99.2305 79.5795 99.3756 76.7757 100.423 74.2521L84.1876 58.1242V100.558C86.6469 101.769 88.6146 103.78 89.7627 106.256C90.9109 108.733 91.1703 111.525 90.4977 114.169C89.8252 116.812 88.2612 119.147 86.0663 120.784C83.8715 122.421 81.1783 123.262 78.4353 123.166C75.6923 123.07 73.0651 122.044 70.9914 120.257C68.9176 118.471 67.5225 116.033 67.0384 113.35C66.5543 110.666 67.0104 107.898 68.3308 105.508C69.6512 103.118 71.7561 101.249 74.295 100.213V57.3888C72.8262 56.7902 71.4911 55.9088 70.3667 54.7954C69.2423 53.682 68.3508 52.3586 67.7435 50.9014C67.1363 49.4442 66.8252 47.8821 66.8283 46.305C66.8314 44.7279 67.1486 43.167 67.7616 41.7121L49.9841 24.041L2.97182 70.7592C2.02991 71.6909 1.2825 72.7982 0.772516 74.0176C0.262529 75.237 0 76.5445 0 77.8649C0 79.1854 0.262529 80.4928 0.772516 81.7122C1.2825 82.9316 2.02991 84.039 2.97182 84.9707L71.5302 153.053C72.468 153.988 73.5824 154.73 74.8094 155.236C76.0364 155.742 77.3519 156.003 78.6805 156.003C80.009 156.003 81.3245 155.742 82.5515 155.236C83.7785 154.73 84.8929 153.988 85.8307 153.053L154.075 85.2437C155.017 84.3119 155.764 83.2046 156.274 81.9852C156.784 80.7658 157.047 79.4583 157.047 78.1379C157.047 76.8174 156.784 75.51 156.274 74.2906C155.764 73.0712 155.017 71.9638 154.075 71.0321" fill="#DD4C35"/>
<path d="M56.9776 17.094L75.0355 35.0325C77.1649 34.3126 79.455 34.2014 81.645 34.7116C83.8349 35.2218 85.8365 36.3327 87.4218 37.918C89.0071 39.5032 90.1122 41.4989 90.6112 43.6777C91.1103 45.8565 90.9832 48.1307 90.2445 50.2412L107.629 67.5112C110.228 66.6244 113.054 66.6489 115.637 67.5807C118.219 68.5125 120.403 70.2953 121.823 72.6321C123.243 74.9688 123.814 77.7184 123.441 80.4227C123.068 83.1269 121.773 85.6226 119.773 87.4938C117.773 89.365 115.187 90.4988 112.447 90.7062C109.708 90.9136 106.979 90.1821 104.716 88.6336C102.453 87.0852 100.793 84.8132 100.012 82.1963C99.2308 79.5794 99.3759 76.7756 100.423 74.2521L84.1878 58.1241V100.558C86.6472 101.769 88.6148 103.78 89.763 106.256C90.9112 108.733 91.1706 111.525 90.498 114.169C89.8254 116.812 88.2614 119.147 86.0666 120.784C83.8717 122.421 81.1785 123.262 78.4355 123.166C75.6925 123.07 73.0653 122.044 70.9916 120.257C68.9179 118.471 67.5228 116.033 67.0387 113.349C66.5546 110.666 67.0107 107.898 68.3311 105.508C69.6514 103.118 71.7564 101.249 74.2952 100.213V57.3888C72.8264 56.7901 71.4914 55.9087 70.367 54.7953C69.2426 53.6819 68.3511 52.3585 67.7438 50.9013C67.1365 49.4441 66.8254 47.882 66.8285 46.3049C66.8316 44.7278 67.1488 43.1669 67.7618 41.7121L49.9843 24.041" fill="white"/>
</svg>
