<svg width="101" height="151" viewBox="0 0 101 151" fill="none" xmlns="http://www.w3.org/2000/svg">
<path d="M25.1667 151C31.8413 151 38.2425 148.349 42.9622 143.629C47.6818 138.909 50.3333 132.508 50.3333 125.833V100.667H25.1667C18.492 100.667 12.0908 103.318 7.37114 108.038C2.65148 112.758 0 119.159 0 125.833C0 132.508 2.65148 138.909 7.37114 143.629C12.0908 148.349 18.492 151 25.1667 151Z" fill="#0ACF83"/>
<path d="M0 75.4999C0 68.8253 2.65148 62.4241 7.37114 57.7044C12.0908 52.9847 18.492 50.3333 25.1667 50.3333H50.3333V100.667H25.1667C18.492 100.667 12.0908 98.0151 7.37114 93.2954C2.65148 88.5758 0 82.1745 0 75.4999Z" fill="#A259FF"/>
<path d="M0 25.1667C-2.03589e-06 18.4955 2.64878 12.0972 7.36419 7.37809C12.0796 2.65899 18.4758 0.00521188 25.147 0L50.3137 0V50.3333H25.1667C18.492 50.3333 12.0908 47.6818 7.37114 42.9622C2.65148 38.2425 0 31.8413 0 25.1667Z" fill="#F24E1E"/>
<path d="M50.3331 0H75.4998C82.1744 0 88.5757 2.65148 93.2953 7.37114C98.015 12.0908 100.666 18.492 100.666 25.1667C100.666 31.8413 98.015 38.2425 93.2953 42.9622C88.5757 47.6818 82.1744 50.3333 75.4998 50.3333H50.3331V0Z" fill="#FF7262"/>
<path d="M100.666 75.4999C100.666 82.1745 98.015 88.5758 93.2953 93.2954C88.5757 98.0151 82.1744 100.667 75.4998 100.667C68.8252 100.667 62.4239 98.0151 57.7043 93.2954C52.9846 88.5758 50.3331 82.1745 50.3331 75.4999C50.3331 68.8253 52.9846 62.4241 57.7043 57.7044C62.4239 52.9847 68.8252 50.3333 75.4998 50.3333C82.1744 50.3333 88.5757 52.9847 93.2953 57.7044C98.015 62.4241 100.666 68.8253 100.666 75.4999Z" fill="#1ABCFE"/>
</svg>
