<svg width="162" height="165" viewBox="0 0 162 165" fill="none" xmlns="http://www.w3.org/2000/svg">
<path d="M0 82.5V165H80.8401H161.68V82.5V0H80.8401H0V82.5Z" fill="#007ACC"/>
<path d="M121.686 81.5927C125.292 82.4479 128.569 84.3726 131.104 87.1239C132.499 88.6125 133.711 90.2694 134.713 92.0576C134.761 92.255 128.21 96.7337 124.241 99.2444C124.095 99.3431 123.525 98.6962 122.88 97.7314C122.156 96.4573 121.128 95.3912 119.89 94.6328C118.652 93.8744 117.245 93.4486 115.802 93.3952C111.236 93.0773 108.272 95.5167 108.32 99.5843C108.282 100.583 108.504 101.575 108.966 102.457C109.972 104.578 111.833 105.845 117.69 108.427C128.447 113.152 133.083 116.271 135.977 120.706C137.587 123.507 138.578 126.633 138.879 129.864C139.18 133.096 138.784 136.356 137.719 139.416C136.259 142.775 133.942 145.675 131.01 147.813C128.078 149.952 124.637 151.25 121.046 151.575C117.232 152.021 113.378 151.98 109.574 151.454C103.745 150.479 98.3753 147.628 94.2503 143.319C92.693 141.53 91.3746 139.54 90.3294 137.399C90.7698 137.065 91.2336 136.764 91.7171 136.499C92.384 136.11 94.9442 134.625 97.3107 133.21L101.613 130.65L102.517 132.004C104.049 134.236 105.999 136.137 108.256 137.596C110.527 138.865 113.1 139.466 115.687 139.333C118.273 139.199 120.773 138.336 122.907 136.839C124.001 135.746 124.684 134.297 124.837 132.743C124.991 131.189 124.604 129.63 123.746 128.337C122.573 126.632 120.185 125.196 113.398 122.197C108.075 120.361 103.228 117.321 99.22 113.306C97.3084 111.086 95.8967 108.466 95.084 105.631C94.4826 102.401 94.3936 99.0934 94.8205 95.8347C95.6181 92.0853 97.5273 88.6765 100.289 86.0702C103.052 83.4638 106.533 81.7859 110.262 81.2638C114.065 80.7881 117.916 80.8989 121.686 81.5927ZM86.3332 88.001L86.3816 94.2888H66.7825V151.059H52.9167V94.2888H33.3122V88.1271C33.2589 86.0132 33.3146 83.898 33.4789 81.79C33.5489 81.6914 45.4783 81.642 59.941 81.6694L86.2579 81.7407L86.3332 88.001Z" fill="white"/>
</svg>
