<svg width="180" height="174" viewBox="0 0 180 174" fill="none" xmlns="http://www.w3.org/2000/svg">
<g clip-path="url(#clip0_2_29)">
<path d="M153.053 0H27.2981C12.4155 0 0.350708 11.6854 0.350708 26.1V147.9C0.350708 162.315 12.4155 174 27.2981 174H153.053C167.935 174 180 162.315 180 147.9V26.1C180 11.6854 167.935 0 153.053 0Z" fill="white"/>
<path d="M90.1754 99.2344C97.1517 99.2344 102.807 93.7569 102.807 87C102.807 80.2431 97.1517 74.7656 90.1754 74.7656C83.1992 74.7656 77.5438 80.2431 77.5438 87C77.5438 93.7569 83.1992 99.2344 90.1754 99.2344Z" fill="#61DAFB"/>
<path d="M111.744 99.0407C120.005 84.6338 125.513 69.7899 127.056 57.7739C128.599 45.7579 126.051 37.5539 119.972 34.9664C113.893 32.3788 104.78 35.6197 94.6394 43.9761C84.4985 52.3325 74.1593 65.1201 65.8961 79.5263C57.6328 93.9324 52.1222 108.777 50.5764 120.796C49.0305 132.814 51.5759 141.022 57.6528 143.613C63.7297 146.205 72.8404 142.968 82.9809 134.615C93.1215 126.262 103.461 113.477 111.726 99.0712L111.744 99.0407ZM68.6245 99.0712C76.8895 113.477 87.2293 126.262 97.3698 134.615C107.51 142.968 116.621 146.205 122.698 143.613C128.775 141.022 131.32 132.814 129.774 120.796C128.229 108.777 122.718 93.9324 114.455 79.5263C106.191 65.1201 95.8523 52.3325 85.7113 43.9761C75.5704 35.6197 66.4582 32.3788 60.3789 34.9664C54.2997 37.5539 51.7513 45.7579 53.2944 57.7739C54.8374 69.7899 60.3454 84.6338 68.6069 99.0407L68.6245 99.0712ZM90.1929 111.112C107.221 111.11 123.55 108.567 135.588 104.041C147.627 99.5156 154.388 93.3785 154.386 86.9797C154.384 80.5809 147.618 74.4445 135.576 69.9201C123.534 65.3958 107.204 62.8541 90.1754 62.8541C73.1472 62.8541 56.8163 65.3958 44.7747 69.9201C32.7332 74.4445 25.9671 80.5809 25.9648 86.9797C25.9625 93.3785 32.724 99.5156 44.7623 104.041C56.8006 108.567 73.1297 111.11 90.1578 111.112H90.1929Z" stroke="#61DAFB" stroke-width="10"/>
</g>
<defs>
<clipPath id="clip0_2_29">
<rect width="179.649" height="174" fill="white" transform="translate(0.350708)"/>
</clipPath>
</defs>
</svg>
