<svg width="153" height="165" viewBox="0 0 153 165" fill="none" xmlns="http://www.w3.org/2000/svg">
<g clip-path="url(#clip0_2_9)">
<path d="M130.05 0H22.95C10.2751 0 0 11.081 0 24.75V140.25C0 153.919 10.2751 165 22.95 165H130.05C142.725 165 153 153.919 153 140.25V24.75C153 11.081 142.725 0 130.05 0Z" fill="#F7DF1E"/>
<path d="M96.8203 119.238C99.8086 124.717 103.992 128.584 110.865 128.584C116.842 128.584 120.727 125.361 120.727 120.85C120.727 115.693 116.842 113.76 110.268 110.537L106.682 108.926C96.2227 104.092 89.3496 98.291 89.3496 85.7227C89.3496 74.1211 97.418 65.0977 110.268 65.0977C119.531 65.0977 126.105 68.6426 130.588 77.666L119.531 85.4004C117.141 80.5664 114.451 78.6328 110.268 78.6328C106.084 78.6328 103.395 81.5332 103.395 85.4004C103.395 89.9121 106.084 91.8457 112.359 94.7461L115.945 96.3574C128.197 102.158 135.07 107.637 135.07 120.85C135.07 134.707 124.91 142.441 111.164 142.441C97.7168 142.441 89.0508 135.674 84.8672 126.65L96.8203 119.238ZM46.0195 120.527C48.4102 124.717 50.2031 128.584 55.2832 128.584C60.0645 128.584 63.0527 126.65 63.0527 118.916V65.4199H77.3965V118.271C77.3965 134.385 68.7305 141.475 55.8809 141.475C44.2266 141.475 37.6523 135.029 34.3652 127.295L46.0195 120.527Z" fill="black"/>
</g>
<defs>
<clipPath id="clip0_2_9">
<rect width="153" height="165" fill="white"/>
</clipPath>
</defs>
</svg>
