<svg width="167" height="173" viewBox="0 0 167 173" fill="none" xmlns="http://www.w3.org/2000/svg">
<path d="M99.8005 88.0265C96.6823 86.9636 92.1934 87.192 86.3337 87.192H62.792V119.024H87.9676C91.9008 119.024 94.6636 118.588 96.2548 118.284C99.059 117.763 101.404 116.756 103.287 115.54C105.17 114.328 106.718 112.489 107.934 110.169C109.147 107.85 109.755 105.136 109.755 102.1C109.755 98.5463 108.876 95.8171 107.116 93.193C105.358 90.569 102.92 89.0895 99.8005 88.0265ZM96.5687 73.4724C99.6643 72.5202 101.998 70.8566 103.568 68.6464C105.139 66.4348 105.923 63.6211 105.923 60.2815C105.923 57.1177 105.19 54.3109 103.724 51.9028C102.259 49.4946 100.168 48.5632 97.4465 47.6733C94.7251 46.7861 90.0584 47.056 83.4452 47.056H62.792V74.736H84.9522C90.3523 74.736 94.2227 74.2101 96.5687 73.4724ZM167 23.009C167 10.3011 157.056 0 144.789 0H22.211C9.94385 0 0 10.3011 0 23.009V149.991C0 162.699 9.94385 173 22.211 173H144.789C157.056 173 167 162.699 167 149.991V23.009ZM119.643 114.519C117.823 118.357 115.572 121.316 112.893 123.397C110.213 125.479 106.853 127.245 102.815 128.308C98.7772 129.372 93.8259 130.096 87.9676 130.096H50.768V34.6H87.4011C94.4338 34.6 100.073 35.4429 104.322 37.3708C108.571 39.3014 111.898 42.2106 114.307 46.2214C116.713 50.2323 117.917 54.3967 117.917 58.7757C117.917 62.8516 116.848 66.6756 114.714 70.274C112.579 73.8752 109.356 76.7705 105.046 78.9821C110.611 80.6734 114.892 83.5548 117.885 87.6293C120.877 91.7052 122.374 96.5174 122.374 102.067C122.374 106.533 121.464 110.683 119.643 114.519Z" fill="#5B4282"/>
</svg>
